<svg id="_x33_0" enable-background="new 0 0 64 64" height="512" viewBox="0 0 64 64" width="512" xmlns="http://www.w3.org/2000/svg"><g><g><g><path d="m22.29 32.18-1.08.27-2.21.55-.24.06c-4.16 1.04-7.18 4.54-7.69 8.71l-2.16-2.09c-4.27-4.13-6.74-9.76-6.89-15.68h3.98l3 8 2-16 3 6h2.67l.27.82c-.58.55-.94 1.32-.94 2.18 0 .83.34 1.58.88 2.12s1.29.88 2.12.88h1.07.01c.21 1.54.92 2.9 1.97 3.95.08.08.16.16.25.22z" fill="#ff826e"/></g><g><path d="m31.7 32.17c1.18-1.05 1.99-2.52 2.22-4.17h.01 1.07c.83 0 1.58-.34 2.12-.88.31-.31.56-.69.7-1.12h.01 3.17l2 5 4-18 3 11h11.98c-.14 5.75-2.47 11.22-6.52 15.31-1.64-.84-3.49-1.31-5.46-1.31-2.75 0-5.29.92-7.31 2.48-.91-3.59-3.73-6.49-7.45-7.42l-2.24-.56-.21-.05-1.08-.27z" fill="#ff826e"/></g><g><path d="m55.4 7.4c4.23 4.23 6.6 9.95 6.6 15.93v.06c0 .2 0 .41-.02.61h-11.98l-3-11-4 18-2-5h-3.17-.01c.12-.31.18-.65.18-1 0-.86-.36-1.63-.94-2.18l.5-1.5c.29-.87.44-1.79.44-2.72 0-4.75-3.85-8.6-8.6-8.6h-4.8c-2.38 0-4.52.96-6.08 2.52s-2.52 3.7-2.52 6.08c0 .93.15 1.85.44 2.72l.23.68h-2.67l-3-6-2 16-3-8h-3.98c-.02-.2-.02-.41-.02-.61v-.06c0-2.99.59-5.91 1.71-8.62 1.13-2.71 2.77-5.19 4.89-7.31 1.73-1.73 3.77-3.08 5.98-4 2.22-.92 4.62-1.4 7.06-1.4 2.87 0 5.69.67 8.26 1.95l2.1 1.05 2.1-1.05c2.57-1.28 5.39-1.95 8.26-1.95 2.44 0 4.84.48 7.06 1.4 2.21.92 4.25 2.27 5.98 4z" fill="#ff826e"/></g><g><path d="m24 18-1.24.62c-1.36.67-2.32 1.93-2.64 3.38h-1.12c-.8 0-1.53.31-2.06.82l-.27-.82-.23-.68c-.29-.87-.44-1.79-.44-2.72 0-2.38.96-4.52 2.52-6.08s3.7-2.52 6.08-2.52h4.8c4.75 0 8.6 3.85 8.6 8.6 0 .93-.15 1.85-.44 2.72l-.5 1.5c-.53-.5-1.26-.82-2.06-.82h-1-.34c-1.82 0-3.59-.36-5.23-1.04s-3.15-1.68-4.43-2.96z" fill="#656d78"/></g><g><path d="m27 34 2.87 4.78-2.87 6.22-2.87-6.22z" fill="#b4dd7f"/></g><g><path d="m33 32.5 2.24.56c3.72.93 6.54 3.83 7.45 7.42-2.85 2.19-4.69 5.64-4.69 9.52 0 1.83.41 3.56 1.13 5.11l-7.13 6.89-5-4.83v-12.17l2.87-6.22 2.92-6.33z" fill="#e6e9ed"/></g><g><path d="m21.21 32.45 2.92 6.33 2.87 6.22v12.17l-12-11.6v-.57c0-2.21 1.79-4 4-4v-8z" fill="#e6e9ed"/></g><g><path d="m19 33v8c-2.21 0-4 1.79-4 4v.57l-3.93-3.8c.51-4.17 3.53-7.67 7.69-8.71z" fill="#e6e9ed"/></g><g><path d="m22.3 32.17c1.7 1.32 3.14 1.83 4.7 1.83l-2.87 4.78-2.92-6.33 1.08-.27z" fill="#ccd1d9"/></g><g><path d="m32.79 32.45-2.92 6.33-2.87-4.78c1.81 0 3.46-.69 4.7-1.83l.01.01z" fill="#ccd1d9"/></g><g><path d="m39.13 55.11c-.72-1.55-1.13-3.28-1.13-5.11 0-3.88 1.84-7.33 4.69-9.52 2.02-1.56 4.56-2.48 7.31-2.48 1.97 0 3.82.47 5.46 1.31 3.88 1.98 6.54 6.02 6.54 10.69 0 6.63-5.37 12-12 12-4.8 0-8.95-2.82-10.87-6.89z" fill="#f0d0b4"/></g><g><circle cx="33" cy="45" fill="#fcd770" r="2"/></g><g><path d="m56 49v2c0 .55-.45 1-1 1h-3v3c0 .55-.45 1-1 1h-2c-.55 0-1-.45-1-1v-3h-3c-.55 0-1-.45-1-1v-2c0-.55.45-1 1-1h3v-3c0-.55.45-1 1-1h2c.55 0 1 .45 1 1v3h3c.55 0 1 .45 1 1z" fill="#fcd770"/></g><g><path d="m35 22c.8 0 1.53.32 2.06.82.58.55.94 1.32.94 2.18 0 .35-.06.69-.18 1-.14.43-.39.81-.7 1.12-.54.54-1.29.88-2.12.88h-1.07-.01c.06-.33.08-.66.08-1v-5z" fill="#f0d0b4"/></g><g><path d="m34 22v5c0 .34-.02.67-.08 1-.23 1.65-1.04 3.12-2.22 4.17-1.24 1.14-2.89 1.83-4.7 1.83-1.56 0-3-.51-4.7-1.83-.09-.06-.17-.14-.25-.22-1.05-1.05-1.76-2.41-1.97-3.95-.06-.33-.08-.66-.08-1v-3.91c0-.37.04-.74.12-1.09.32-1.45 1.28-2.71 2.64-3.38l1.24-.62c1.28 1.28 2.79 2.28 4.43 2.96s3.41 1.04 5.23 1.04z" fill="#f0d0b4"/></g><g><path d="m20 27c0 .34.02.67.08 1h-.01-1.07c-.83 0-1.58-.34-2.12-.88s-.88-1.29-.88-2.12c0-.86.36-1.63.94-2.18.53-.51 1.26-.82 2.06-.82h1.12c-.08.35-.12.72-.12 1.09z" fill="#f0d0b4"/></g></g><g><path d="m55 47h-2v-2c0-1.103-.897-2-2-2h-2c-1.103 0-2 .897-2 2v2h-2c-1.103 0-2 .897-2 2v2c0 1.103.897 2 2 2h2v2c0 1.103.897 2 2 2h2c1.103 0 2-.897 2-2v-2h2c1.103 0 2-.897 2-2v-2c0-1.103-.897-2-2-2zm0 4h-4v4h-2v-4h-4v-2h4v-4h2v4l4-.002z"/><path d="m57.04 39.088c3.851-4.335 5.96-9.865 5.96-15.761 0-6.282-2.446-12.188-6.888-16.629-3.674-3.675-8.559-5.698-13.756-5.698-3.005 0-6.013.71-8.7 2.054l-1.656.828-1.656-.828c-2.688-1.344-5.696-2.054-8.7-2.054-5.197 0-10.081 2.023-13.756 5.698-4.442 4.441-6.888 10.347-6.888 16.689 0 6.378 2.63 12.58 7.216 17.013l23.784 22.991 6.896-6.666c2.282 3.754 6.399 6.275 11.104 6.275 7.168 0 13-5.832 13-13 0-4.573-2.38-8.594-5.96-10.912zm-7.04-2.088c-2.483 0-4.797.712-6.772 1.925-1.311-3.376-4.173-5.942-7.746-6.835l-1.949-.487c.549-.777.959-1.656 1.204-2.602h.263c1.474 0 2.75-.81 3.444-2h1.88l2.95 7.377 3.825-17.213 2.137 7.835h11.686c-.36 4.901-2.352 9.476-5.713 13.097-1.597-.701-3.356-1.097-5.209-1.097zm-16 8c0 .552-.448 1-1 1s-1-.448-1-1 .448-1 1-1 1 .448 1 1zm-21.841-3.57c.558-3.22 2.804-5.916 5.841-7.065v5.736c-1.771.361-3.183 1.671-3.734 3.366zm3.841 3.57c0-1.654 1.346-3 3-3s3 1.346 3 3v3h2v-3c0-2.414-1.721-4.434-4-4.899v-6.321l.646-.161 5.354 11.601v9.59l-10-9.666zm3-21.91v3.91c-1.103 0-2-.897-2-2s.897-2 2-2h.006c0 .03-.006.06-.006.09zm.386-2.09h-.386c-.536 0-1.045.11-1.512.301l-.097-.292c-.26-.778-.391-1.587-.391-2.405 0-4.193 3.411-7.604 7.604-7.604h4.793c4.192 0 7.603 3.411 7.603 7.604 0 .818-.131 1.627-.39 2.405l-.098.293c-.467-.192-.976-.302-1.512-.302h-1-.343c-3.248 0-6.302-1.226-8.657-3.441v-2.559h-2v2.382l-.684.342c-1.392.696-2.412 1.876-2.93 3.276zm15.614 2c1.103 0 2 .897 2 2s-.897 2-2 2zm-2 4c0 3.309-2.691 6-6 6s-6-2.691-6-6v-3.91c0-1.525.847-2.896 2.211-3.578l.608-.304c2.539 2.304 5.754 3.627 9.181 3.777zm-10.018 6.906c.723.422 1.514.739 2.358.918l-1.093 1.822zm4.018 8.707-1.74-3.77 1.74-2.9 1.74 2.9zm2.754-5.967-1.093-1.822c.844-.179 1.635-.495 2.358-.918zm-20.452-28.534c3.297-3.297 7.679-5.112 12.342-5.112 2.695 0 5.395.637 7.806 1.843l2.55 1.275 2.551-1.275c2.411-1.206 5.11-1.843 7.805-1.843 4.662 0 9.045 1.815 12.342 5.112 3.972 3.973 6.185 9.229 6.283 14.888h-10.217l-3.863-14.164-4.175 18.787-1.049-2.623h-2.677c0-.901-.31-1.724-.815-2.393l.323-.966c.326-.983.492-2.004.492-3.037 0-5.296-4.309-9.604-9.604-9.604h-4.793c-5.294 0-9.603 4.308-9.603 9.604 0 .81.106 1.613.308 2.396h-.69l-4.201-8.401-1.906 15.25-1.818-4.849h-3.677c.084-5.624 2.3-10.902 6.286-14.888zm-6.217 16.888h2.222l4.183 11.151 2.094-16.75 1.798 3.599h2.174c-.344.591-.556 1.268-.556 2 0 2.206 1.794 4 4 4h.263c.245.946.655 1.825 1.204 2.602l-1.949.487c-3.874.969-6.923 3.96-8.047 7.71l-.865-.836c-3.799-3.674-6.112-8.674-6.521-13.963zm28.915 35.609-4-3.867v-11.522l4-8.667v5.631c-1.161.414-2 1.514-2 2.816 0 1.654 1.346 3 3 3s3-1.346 3-3c0-1.302-.839-2.402-2-2.816v-8.404l.997.249c3.112.779 5.557 3.105 6.534 6.129-2.768 2.386-4.531 5.909-4.531 9.842 0 1.718.343 3.355.951 4.857zm18 .391c-6.065 0-11-4.935-11-11s4.935-11 11-11 11 4.935 11 11-4.935 11-11 11z"/><circle cx="24" cy="25" r="1"/><circle cx="30" cy="25" r="1"/><path d="m24.895 27.553-1.789.895.105.21c.722 1.445 2.174 2.342 3.789 2.342s3.067-.897 3.789-2.342l.105-.211-1.789-.895-.105.212c-.381.762-1.147 1.236-2 1.236s-1.619-.474-2-1.236z"/></g></g></svg>